<svg xmlns="http://www.w3.org/2000/svg" xmlns:xlink="http://www.w3.org/1999/xlink" xmlns:sketch="http://www.bohemiancoding.com/sketch/ns" width="37px" height="38px" viewBox="0 0 37 38" version="1.1">
    <!-- Generator: "Sketch Internal" 3.0 (7434) - http://www.bohemiancoding.com/sketch -->
    <title>Rectangle-path</title>
    <description>Created with "Sketch Internal".</description>
    <defs/>
    <g id="Page-1" stroke="none" stroke-width="1" fill="none" fill-rule="evenodd" sketch:type="MSPage">
        <g id="Landscape" sketch:type="MSArtboardGroup" transform="translate(-494.000000, -365.000000)" fill="#fff">
            <g id="Minus_6_" sketch:type="MSLayerGroup" transform="translate(487.000000, 359.000000)">
                <path d="M7,24 L7,26 L17,26 L17,24 L7,24 Z M9.92253283,15.092959 L8.92253283,16.8250098 L17.5827869,21.8250098 L18.5827869,20.092959 L9.92253283,15.092959 Z M16.907041,8.84050159 L15.1749902,9.84050159 L20.1749902,18.5007556 L21.907041,17.5007556 L16.907041,8.84050159 Z M26.0820312,6.91796875 L24.0820312,6.91796875 L24.0820312,16.9179688 L26.0820312,16.9179688 L26.0820312,6.91796875 Z M34.9890723,9.84050158 L33.2570215,8.84050158 L28.2570215,17.5007556 L29.9890723,18.5007556 L34.9890723,9.84050158 Z M41.2415297,16.8250098 L40.2415297,15.092959 L31.5812756,20.092959 L32.5812756,21.8250098 L41.2415297,16.8250098 Z M43.1640625,26 L43.1640625,24 L33.1640625,24 L33.1640625,26 L43.1640625,26 Z M40.2415297,34.907041 L41.2415297,33.1749902 L32.5812756,28.1749902 L31.5812756,29.907041 L40.2415297,34.907041 Z M33.2570215,41.1594984 L34.9890723,40.1594984 L29.9890723,31.4992444 L28.2570215,32.4992444 L33.2570215,41.1594984 Z M24.0820313,43.0820312 L26.0820313,43.0820312 L26.0820313,33.0820312 L24.0820313,33.0820312 L24.0820313,43.0820312 Z M15.1749902,40.1594984 L16.907041,41.1594984 L21.907041,32.4992444 L20.1749902,31.4992444 L15.1749902,40.1594984 Z M8.92253284,33.1749902 L9.92253284,34.907041 L18.5827869,29.907041 L17.5827869,28.1749902 L8.92253284,33.1749902 Z" id="Rectangle-path" sketch:type="MSShapeGroup"/>
            </g>
        </g>
    </g>
</svg>