<?xml version="1.0" encoding="UTF-8" standalone="no"?>
<svg width="183px" height="181px" viewBox="0 0 183 181" version="1.1" xmlns="http://www.w3.org/2000/svg" xmlns:xlink="http://www.w3.org/1999/xlink">
    <!-- Generator: Sketch 3.7.2 (28276) - http://www.bohemiancoding.com/sketch -->
    <title>Illustration-box</title>
    <desc>Created with Sketch.</desc>
    <defs>
        <polygon id="path-1" points="1.812 10.6585 1.812 0.3085 0.8125 0.3085 0.8125 10.6585 1.812 10.6585"></polygon>
    </defs>
    <g id="Page-1" stroke="none" stroke-width="1" fill="none" fill-rule="evenodd">
        <g id="Try-Demo-Moto-CMS" transform="translate(-779.000000, -373.000000)">
            <g id="Illustration-box" transform="translate(779.000000, 373.000000)">
                <polygon id="Fill-1" fill="#006023" points="91.4943 66.6249 147.9893 94.6009 147.9893 152.1149 91.4943 130.6079"></polygon>
                <polygon id="Fill-2" fill="#006023" points="91.4944 66.6249 34.9994 94.6009 34.9994 152.1149 91.4944 130.6079"></polygon>
                <polygon id="Fill-3" fill="#1B9B4A" points="34.9993 94.6011 15.4843 75.6181 73.7053 47.9641 91.4943 66.6251"></polygon>
                <polygon id="Fill-4" fill="#1AB744" points="147.9894 94.6011 167.5044 75.6181 109.2834 47.9641 91.4944 66.6251"></polygon>
                <path d="M30.729,53.254 L30.729,78.039" id="Stroke-5" stroke="#1AB744" stroke-width="2" stroke-linecap="round" stroke-linejoin="round"></path>
                <path d="M149.5951,45.856 L149.5951,60.896" id="Stroke-6" stroke="#1AB744" stroke-width="2" stroke-linecap="round" stroke-linejoin="round"></path>
                <path d="M103.019,18.6677 L103.019,33.6067" id="Stroke-7" stroke="#1AB744" stroke-width="2" stroke-linecap="round" stroke-linejoin="round"></path>
                <path d="M91.4943,0.9995 L91.4943,10.5415" id="Stroke-8" stroke="#1AB744" stroke-width="2" stroke-linecap="round" stroke-linejoin="round"></path>
                <path d="M77.6286,22.2962 L77.6286,27.0672" id="Stroke-10" stroke="#1AB744" stroke-width="2" stroke-linecap="round" stroke-linejoin="round"></path>
                <g id="Group-16" transform="translate(1.000000, 103.091000)">
                    <path d="M0,0.0147 L0,4.7857" id="Stroke-11" stroke="#1AB744" stroke-width="2" stroke-linecap="round" stroke-linejoin="round"></path>
                    <g id="Group-15" transform="translate(180.000000, 1.000000)">
                        <mask id="mask-2" fill="white">
                            <use xlink:href="#path-1"></use>
                        </mask>
                        <g id="Clip-14"></g>
                        <path d="M0.8125,0.3085 L0.8125,10.6585" id="Stroke-13" stroke="#1AB744" stroke-width="2" stroke-linecap="round" stroke-linejoin="round" mask="url(#mask-2)"></path>
                    </g>
                </g>
                <polygon id="Fill-17" fill="#FF8900" points="67.1768 32.094 42.8588 51.548 42.8588 90.456 91.4948 129.364 140.1298 90.456 140.1298 51.548 115.8118 32.094 91.4948 51.548"></polygon>
                <polygon id="Fill-18" fill="#FD9A00" points="67.1769 71.002 91.4939 51.548 67.1769 32.094"></polygon>
                <polygon id="Fill-19" fill="#FCC400" points="42.8589 51.5476 67.1769 71.0016 67.1769 32.0936"></polygon>
                <polygon id="Fill-20" fill="#FFE747" points="115.812 71.002 140.129 51.548 115.812 32.094"></polygon>
                <polygon id="Fill-21" fill="#FFCD22" points="91.494 51.5476 115.812 71.0016 115.812 32.0936"></polygon>
                <polygon id="Fill-22" fill="#FC9300" points="91.494 90.4564 115.812 71.0024 91.494 51.5474"></polygon>
                <polygon id="Fill-23" fill="#FD7000" points="67.1769 71.002 91.4939 90.456 91.4939 51.548"></polygon>
                <polygon id="Fill-24" fill="#FF8900" points="115.812 109.9099 140.129 90.4569 115.812 71.0019"></polygon>
                <polygon id="Fill-25" fill="#E12A14" points="91.494 90.4564 115.812 109.9094 115.812 71.0024"></polygon>
                <polygon id="Fill-26" fill="#DC2400" points="67.1769 109.9099 91.4939 90.4569 67.1769 71.0019"></polygon>
                <polygon id="Fill-27" fill="#FF8F04" points="42.8589 90.4564 67.1769 109.9094 67.1769 71.0024"></polygon>
                <polygon id="Fill-28" fill="#AF0B00" points="91.494 129.3643 115.812 109.9103 91.494 90.4563"></polygon>
                <polygon id="Fill-29" fill="#BA1200" points="67.1769 109.9099 91.4939 129.3639 91.4939 90.4569"></polygon>
                <polygon id="Fill-30" fill="#FCC400" points="115.812 71.002 140.129 90.456 140.129 51.548"></polygon>
                <polygon id="Fill-31" fill="#FFA800" points="42.8589 90.4564 67.1769 71.0024 42.8589 51.5474"></polygon>
                <polygon id="Fill-32" fill="#1B9B4A" points="34.9992 152.1145 91.4942 180.0915 91.4942 121.2835 34.9992 94.6005"></polygon>
                <polygon id="Fill-33" fill="#1AB744" points="91.494 121.2832 91.494 180.0912 147.99 152.1142 147.99 94.6012"></polygon>
                <polygon id="Fill-34" fill="#1AB744" points="0.585 99.0091 56.385 126.9861 91.494 121.2841 34.999 94.6011"></polygon>
                <polygon id="Fill-35" fill="#1B9B4A" points="91.494 121.2841 126.604 126.9861 182.404 99.0091 147.99 94.6011"></polygon>
            </g>
        </g>
    </g>
</svg>